<?xml version="1.0" standalone="no"?>
<!DOCTYPE svg PUBLIC "-//W3C//DTD SVG 20010904//EN"
 "http://www.w3.org/TR/2001/REC-SVG-20010904/DTD/svg10.dtd">
<svg version="1.0" xmlns="http://www.w3.org/2000/svg"
 width="1126.000000pt" height="1126.000000pt" viewBox="0 0 1126.000000 1126.000000"
 preserveAspectRatio="xMidYMid meet">
<metadata>
Created by potrace 1.14, written by Peter Selinger 2001-2017
</metadata>
<g transform="translate(0.000000,1126.000000) scale(0.100000,-0.100000)"
fill="#000000" stroke="none">
<path d="M5255 9661 c-44 -4 -93 -13 -108 -19 -16 -7 -60 -12 -98 -12 -39 0
-82 -6 -97 -14 -15 -7 -53 -16 -85 -19 -32 -3 -69 -13 -82 -21 -14 -9 -42 -16
-63 -16 -22 0 -45 -6 -51 -14 -6 -7 -30 -16 -52 -19 -22 -3 -48 -12 -58 -21
-10 -9 -27 -16 -38 -16 -20 0 -34 -6 -125 -51 -20 -11 -43 -19 -51 -19 -8 0
-20 -7 -27 -15 -7 -8 -20 -15 -30 -15 -9 0 -27 -9 -40 -20 -13 -11 -31 -20
-42 -20 -10 0 -18 -4 -18 -9 0 -10 -30 -28 -79 -51 -13 -6 -41 -24 -61 -40
-21 -17 -41 -30 -44 -30 -4 0 -48 -32 -99 -72 -111 -86 -392 -362 -444 -436
-48 -68 -74 -100 -95 -120 -10 -9 -18 -20 -18 -24 0 -5 -15 -30 -33 -56 -18
-26 -36 -54 -40 -62 -4 -8 -19 -35 -33 -60 -54 -94 -104 -196 -104 -211 0 -9
-7 -22 -15 -29 -8 -7 -15 -23 -15 -36 0 -12 -7 -29 -15 -37 -8 -8 -17 -33 -21
-56 -4 -22 -13 -46 -20 -52 -8 -6 -14 -27 -14 -47 0 -19 -7 -43 -15 -51 -7 -9
-16 -40 -19 -68 -3 -29 -12 -66 -21 -82 -8 -17 -15 -54 -15 -84 0 -30 -7 -71
-15 -92 -23 -55 -23 -770 0 -814 8 -17 15 -55 15 -88 0 -32 7 -71 15 -86 8
-16 17 -51 19 -78 3 -27 12 -60 21 -72 8 -12 15 -35 15 -52 0 -17 6 -40 14
-51 8 -11 17 -37 21 -57 4 -20 13 -41 21 -48 8 -6 14 -20 14 -31 0 -11 6 -32
14 -46 8 -15 35 -70 60 -122 26 -52 56 -108 66 -125 11 -16 23 -37 27 -45 4
-8 22 -36 40 -62 18 -26 33 -51 33 -56 0 -4 8 -15 18 -23 9 -9 24 -26 32 -39
66 -100 390 -435 480 -495 25 -16 50 -35 55 -41 16 -18 114 -84 124 -84 6 0
14 -6 18 -13 4 -7 19 -18 33 -25 14 -7 39 -21 55 -32 17 -11 37 -22 45 -26 8
-3 22 -10 30 -15 8 -5 29 -16 47 -24 17 -8 34 -19 38 -25 3 -5 17 -10 29 -10
13 0 29 -6 35 -14 7 -8 27 -18 44 -22 18 -3 41 -13 52 -20 11 -8 27 -14 37
-14 10 0 35 -9 55 -20 21 -11 49 -20 63 -20 14 0 34 -7 44 -15 11 -8 36 -15
56 -15 19 0 44 -6 55 -14 11 -7 47 -16 81 -19 33 -4 74 -13 90 -22 18 -9 56
-15 104 -15 41 0 97 -7 124 -15 63 -19 568 -22 613 -4 15 7 75 15 133 19 65 5
116 14 135 24 17 9 53 16 81 16 34 0 56 5 64 15 7 9 29 15 54 15 23 0 51 6 62
14 11 8 38 18 60 22 21 4 48 13 59 20 11 8 29 14 42 14 12 0 28 6 35 13 7 8
30 17 50 21 20 3 41 13 48 21 7 8 18 15 25 15 13 0 62 25 173 87 31 18 68 38
82 45 14 7 29 18 33 25 4 7 12 13 18 13 10 0 108 66 124 84 6 6 30 24 55 41
59 39 390 368 423 420 13 22 33 49 43 60 11 11 41 53 68 93 27 40 53 75 57 78
5 3 9 13 9 22 0 10 9 25 20 35 11 9 20 25 20 36 0 10 7 21 15 25 8 3 15 14 15
24 0 10 9 29 20 42 11 13 20 31 20 40 0 10 7 23 15 30 8 7 15 23 15 35 0 12 7
28 15 35 8 7 15 20 15 29 0 9 9 33 20 54 11 20 20 47 20 60 0 13 7 32 15 43 8
10 15 32 15 47 0 15 9 45 20 67 11 22 20 59 20 82 0 24 7 52 15 62 10 13 15
43 15 83 0 34 8 84 18 110 15 42 17 88 17 373 0 285 -2 331 -17 373 -10 26
-18 76 -18 110 -1 39 -6 69 -15 81 -8 11 -15 39 -15 63 0 24 -9 60 -20 80 -11
21 -20 51 -20 68 0 16 -7 39 -15 49 -8 11 -15 29 -15 41 0 11 -9 38 -20 60
-11 22 -20 45 -20 53 0 7 -7 20 -15 28 -8 9 -15 26 -15 38 0 13 -7 29 -15 36
-8 7 -15 19 -15 27 0 8 -9 26 -20 40 -11 14 -20 31 -20 38 0 7 -7 18 -15 25
-8 7 -15 20 -15 30 0 9 -9 25 -20 35 -11 10 -20 22 -20 27 0 22 -166 254 -246
343 -117 131 -290 296 -355 340 -24 16 -47 34 -50 38 -10 14 -142 106 -174
123 -16 8 -43 23 -60 34 -16 10 -57 33 -90 50 -33 17 -67 34 -75 39 -81 42
-102 51 -118 51 -11 0 -25 7 -32 15 -7 8 -25 15 -40 15 -15 0 -33 7 -40 15 -7
8 -28 17 -49 20 -20 4 -48 13 -63 21 -14 8 -41 14 -60 14 -18 0 -44 7 -56 16
-13 9 -51 18 -85 21 -34 3 -71 12 -82 19 -12 9 -47 14 -91 14 -39 0 -93 7
-120 15 -57 18 -465 29 -599 16z m520 -1361 c22 -11 50 -19 62 -20 12 0 34 -6
50 -14 15 -8 54 -27 86 -43 79 -39 84 -42 152 -94 104 -81 227 -223 265 -307
5 -13 17 -30 25 -38 8 -9 15 -24 15 -33 0 -10 6 -24 14 -30 7 -6 16 -27 19
-46 3 -19 13 -42 21 -51 9 -8 16 -32 16 -52 0 -21 6 -46 14 -57 7 -11 16 -59
20 -107 3 -48 11 -99 18 -115 15 -38 16 -269 0 -306 -7 -16 -15 -67 -18 -115
-4 -48 -13 -97 -20 -109 -8 -12 -14 -36 -14 -53 0 -16 -9 -47 -20 -67 -11 -21
-20 -45 -20 -54 0 -9 -7 -22 -15 -29 -8 -7 -15 -20 -15 -30 0 -9 -8 -28 -18
-41 -10 -13 -22 -31 -26 -39 -55 -118 -243 -306 -369 -370 -27 -14 -58 -31
-70 -37 -12 -7 -29 -13 -38 -13 -9 0 -22 -7 -29 -15 -7 -8 -28 -15 -47 -15
-18 0 -52 -9 -74 -21 -38 -19 -55 -20 -262 -17 -192 3 -225 5 -247 21 -13 9
-41 17 -61 17 -20 0 -42 6 -48 14 -7 8 -27 17 -45 20 -19 4 -39 13 -46 21 -7
8 -19 15 -26 15 -43 0 -261 183 -312 260 -9 14 -31 43 -49 66 -18 23 -33 47
-33 53 0 7 -9 24 -20 38 -11 14 -20 31 -20 38 0 7 -7 18 -15 25 -8 7 -15 25
-15 40 0 15 -6 33 -14 39 -8 6 -17 31 -20 55 -4 24 -13 52 -21 62 -8 11 -14
42 -15 75 0 31 -7 76 -15 99 -21 59 -21 377 0 435 8 22 14 65 15 96 0 32 6 63
15 75 8 10 17 40 21 66 4 26 13 53 20 59 8 6 14 24 14 39 0 15 7 33 15 40 8 7
15 18 15 25 0 7 9 24 20 38 11 14 20 31 20 37 0 16 134 186 179 228 57 53 149
122 195 145 22 12 47 27 54 34 7 7 24 13 36 13 13 0 29 7 36 15 7 8 27 15 44
15 17 0 47 9 66 19 32 18 56 20 265 20 207 0 234 -2 270 -19z"/>
<path d="M11055 4294 c-22 -9 -53 -19 -70 -23 -16 -5 -55 -16 -85 -25 -30 -10
-80 -24 -110 -32 -30 -9 -77 -22 -105 -30 -46 -12 -110 -27 -295 -69 -36 -8
-83 -17 -105 -20 -22 -4 -69 -13 -105 -20 -87 -18 -191 -34 -330 -51 -110 -14
-190 -22 -427 -44 -60 -6 -252 -15 -428 -20 -176 -5 -412 -14 -525 -20 -113
-5 -504 -14 -870 -20 -366 -6 -684 -13 -707 -16 -23 -3 -47 -11 -53 -19 -21
-25 12 -284 55 -440 35 -124 69 -231 76 -239 5 -6 9 -16 9 -24 0 -28 130 -295
181 -370 16 -24 29 -45 29 -48 0 -2 17 -28 37 -57 196 -279 469 -517 762 -662
223 -110 397 -165 671 -211 150 -25 554 -25 695 0 169 30 345 76 422 112 17 7
35 14 40 14 4 0 40 16 78 35 39 19 73 35 77 35 11 0 174 97 233 138 342 238
617 570 775 937 12 28 26 59 31 70 12 27 37 99 55 160 83 271 116 551 96 818
-12 163 -21 174 -107 141z"/>
<path d="M176 4184 c-9 -68 -7 -308 4 -384 5 -36 13 -101 19 -145 11 -83 33
-188 56 -265 43 -144 68 -221 76 -226 5 -3 9 -13 9 -22 0 -24 135 -291 185
-367 152 -232 335 -428 534 -570 122 -88 304 -188 426 -235 33 -12 69 -26 80
-31 76 -32 238 -72 430 -106 137 -24 583 -24 693 1 40 9 86 16 102 16 15 0 52
7 81 16 30 9 86 25 124 36 62 18 130 42 190 67 47 20 213 104 250 127 22 13
49 29 60 34 29 14 144 98 206 150 147 123 237 216 361 375 76 96 144 208 218
355 23 47 47 94 52 104 6 11 14 31 19 45 4 14 20 58 34 96 54 144 95 326 115
514 9 79 9 106 0 111 -7 4 -402 10 -879 13 -1249 7 -1809 33 -2346 108 -247
35 -269 39 -417 70 -29 6 -82 17 -118 24 -73 14 -140 30 -215 50 -27 8 -86 24
-130 36 -44 12 -97 27 -118 35 -20 8 -50 14 -66 14 -26 0 -29 -4 -35 -46z"/>
</g>
</svg>
